<svg version="1.2" xmlns="http://www.w3.org/2000/svg" viewBox="0 0 1664 816" width="1664" height="816">
	<defs>
		<clipPath clipPathUnits="userSpaceOnUse" id="cp1">
			<path d="m90.67 90.67h1482.66v494.66h-1482.66z"/>
		</clipPath>
	</defs>
	<style>
		.s0 { fill: #ffffff } 
	</style>
	<g>
		<g id="Clip-Path" clip-path="url(#cp1)">
			<g>
				<g>
					<g>
						<g>
							<path class="s0" d="m328.24 424.29v61.98h-202.56v-276.38h71.08v214.4z"/>
						</g>
					</g>
				</g>
				<g>
					<g>
						<g>
							<path class="s0" d="m576.96 486.27l-16.58-41.06h-127.52l-16.59 41.06h-76.6l122.79-276.38h68.71l122.79 276.38zm-119.62-100.69h78.95l-32.77-80.54-6.7-18.17-6.71 18.17z"/>
						</g>
					</g>
				</g>
				<g>
					<g>
						<g>
							<path class="s0" d="m890.46 336.23q16.98 11.06 26.25 28.04 9.29 16.98 9.29 38.29 0 24.09-11.27 43.04-11.25 18.96-30.79 29.81-19.55 10.86-44.42 10.86h-164.25v-276.38h138.19q47 0.01 71.67 20.34 24.68 20.33 24.68 51.91 0 15.8-5.33 29.42-5.33 13.63-14.02 24.67zm-74.63-68.3h-70.27v49.73h75.8q11.45 0.01 16.97-8.66 5.55-8.69 5.55-18.57-0.01-10.66-7.52-16.58-7.51-5.91-20.53-5.92zm9.09 157.92q14.2 0 22.69-7.1 8.5-7.1 8.5-21.71 0-11.85-6.13-18.56-6.11-6.71-24.67-6.71h-79.75v54.08z"/>
						</g>
					</g>
				</g>
				<g>
					<g>
						<g>
							<path class="s0" d="m1103.28 205.14q32.37 0 60.39 10.48 28.04 10.46 48.96 29.42 20.94 18.94 32.58 45.21 11.65 26.25 11.65 57.83 0 31.59-11.65 57.85-11.64 26.26-32.58 45.21-20.92 18.94-48.96 29.4-28.02 10.45-60.39 10.46-32.38-0.01-60.42-10.46-28.05-10.46-48.96-29.4-20.92-18.95-32.58-45.21-11.65-26.26-11.65-57.85 0-31.58 11.65-57.83 11.66-26.27 32.58-45.21 20.91-18.96 48.96-29.42 28.04-10.48 60.42-10.48zm0 222.29q24.47 0 42.62-10.06 18.17-10.06 28.23-28.02 10.08-17.97 10.08-41.27 0-23.69-10.08-41.46-10.06-17.77-28.23-27.83-18.15-10.08-42.62-10.08-24.49 0-42.65 10.08-18.17 10.06-28.04 27.83-9.88 17.77-9.88 41.46 0 23.3 9.88 41.27 9.87 17.96 28.04 28.02 18.16 10.06 42.65 10.06z"/>
						</g>
					</g>
				</g>
				<g>
					<g>
						<g>
							<path class="s0" d="m1475.19 486.27l-55.27-79.75h-55.27v79.75h-71.08v-276.38h147.67q33.16 0 56.27 12.44 23.1 12.44 35.14 33.75 12.04 21.32 12.04 48.96 0 28.84-13.43 52.73-13.42 23.88-39.48 36.89l67.52 91.61zm-110.54-214.4v73.04h61.58q26.45 0 36.12-11.43 9.67-11.46 9.67-26.86 0-18.16-10.85-26.46-10.86-8.29-34.15-8.29z"/>
						</g>
					</g>
				</g>
			</g>
		</g>
	</g>
	<g>
		<g>
			<g>
				<path class="s0" d="m159.43 607.61q14.02 0 22.09 7.79 8.08 7.78 8.08 21.54 0 7.96-3.85 14.57-3.86 6.58-11.05 10.56-7.19 3.96-17.27 3.96h-19.25v24.7h-17.56v-83.12zm-2.25 43.35q7.48 0.01 10.92-4.1 3.45-4.1 3.46-9.92-0.01-7.12-3.4-10.43-3.37-3.34-10.37-3.34h-19.61v27.79z"/>
			</g>
		</g>
	</g>
	<g>
		<g>
			<g>
				<path class="s0" d="m277.72 690.73l-6.17-14.37h-41.1l-6.17 14.37h-19.13l37.9-83.25h16.02l37.77 83.25zm-40.85-29.45h28.27l-12.23-28.73-1.9-4.98-1.91 4.98z"/>
			</g>
		</g>
	</g>
	<g>
		<g>
			<g>
				<path class="s0" d="m378.54 607.61v15.56h-25.41v67.56h-17.59v-67.56h-25.29v-15.56z"/>
			</g>
		</g>
	</g>
	<g>
		<g>
			<g>
				<path class="s0" d="m468.56 690.73l-18.42-26.12h-20.19v26.12h-17.56v-83.12h42.5q9.27 0 16.08 3.33 6.83 3.32 10.63 9.57 3.81 6.23 3.81 14.89 0 9.03-4.39 16.04-4.4 7-12.71 10.44l21.5 28.85zm-38.61-67.56v25.88h21.86q8.54 0 12.04-3.79 3.52-3.79 3.52-9.63 0-6.77-3.98-9.6-3.98-2.86-11.71-2.86z"/>
			</g>
		</g>
	</g>
	<g>
		<g>
			<g>
				<path class="s0" d="m562.13 606.19q9.73 0.01 18.04 3.15 8.31 3.15 14.54 8.85 6.25 5.69 9.75 13.59 3.5 7.89 3.5 17.39 0 9.5-3.5 17.4-3.5 7.9-9.75 13.6-6.23 5.69-14.54 8.84-8.31 3.14-18.04 3.14-9.75 0-18.06-3.14-8.32-3.15-14.54-8.84-6.24-5.7-9.73-13.6-3.5-7.9-3.5-17.4 0-9.5 3.5-17.39 3.49-7.9 9.73-13.59 6.22-5.7 14.54-8.85 8.31-3.14 18.06-3.15zm0 70.07q8.43 0 14.6-3.44 6.17-3.46 9.61-9.56 3.45-6.13 3.46-14.09-0.01-8.08-3.46-14.12-3.44-6.07-9.61-9.44-6.17-3.39-14.6-3.4-8.31 0.01-14.56 3.4-6.23 3.37-9.67 9.44-3.44 6.04-3.44 14.12 0 7.96 3.44 14.09 3.44 6.1 9.67 9.56 6.25 3.44 14.56 3.44z"/>
			</g>
		</g>
	</g>
	<g>
		<g>
			<g>
				<path class="s0" d="m718.76 607.61v83.12h-12.48l-46.06-54.62-1.79-2.96v57.58h-17.56v-83.12h15.44l43.2 51.06 1.67 2.98v-54.04z"/>
			</g>
		</g>
	</g>
	<g>
		<g>
			<g>
				<path class="s0" d="m819.58 690.73l-6.17-14.37h-41.1l-6.17 14.37h-19.13l37.9-83.25h16.02l37.77 83.25zm-40.85-29.45h28.27l-12.23-28.73-1.9-4.98-1.91 4.98z"/>
			</g>
		</g>
	</g>
	<g>
		<g>
			<g>
				<path class="s0" d="m920.4 607.61v15.56h-25.41v67.56h-17.59v-67.56h-25.29v-15.56z"/>
			</g>
		</g>
	</g>
	<g>
		<g>
			<g>
				<path class="s0" d="m990.94 606.19q9.73 0.01 18.04 3.15 8.31 3.15 14.54 8.85 6.25 5.69 9.75 13.59 3.5 7.89 3.5 17.39 0 9.5-3.5 17.4-3.5 7.9-9.75 13.6-6.23 5.69-14.54 8.84-8.31 3.14-18.04 3.14-9.75 0-18.06-3.14-8.32-3.15-14.55-8.84-6.23-5.7-9.73-13.6-3.5-7.9-3.5-17.4 0-9.5 3.5-17.39 3.5-7.9 9.73-13.59 6.23-5.7 14.55-8.85 8.31-3.14 18.06-3.15zm0 70.07q8.43 0 14.6-3.44 6.17-3.46 9.61-9.56 3.45-6.13 3.45-14.09 0-8.08-3.45-14.12-3.44-6.07-9.61-9.44-6.17-3.39-14.6-3.4-8.31 0.01-14.56 3.4-6.24 3.37-9.67 9.44-3.44 6.04-3.44 14.12 0 7.96 3.44 14.09 3.43 6.1 9.67 9.56 6.25 3.44 14.56 3.44z"/>
			</g>
		</g>
	</g>
	<g>
		<g>
			<g>
			</g>
		</g>
	</g>
	<g>
		<g>
			<g>
				<path class="s0" d="m1149 626.84q9.96 0 17.21 4.35 7.25 4.34 10.81 12.65 3.57 8.31 2.25 20.54h-46.43q1.53 7.36 6.58 10.44 5.06 3.08 11.71 3.08 4.87 0 9.73-1.58 4.87-1.6 9.98-5.42l7.95 10.56q-3.67 3.82-8.6 6.19-4.94 2.38-10.17 3.5-5.21 1.13-9.96 1.13-9.75-0.01-17.52-4.02-7.77-4.04-12.23-11.4-4.46-7.37-4.45-17.35-0.01-9.5 4.14-16.86 4.16-7.37 11.59-11.58 7.43-4.23 17.41-4.23zm13.29 26.12q0.35-5.81-3.56-9.12-3.92-3.33-10.33-3.33-6.77 0-10.52 3.45-3.74 3.44-4.92 9z"/>
			</g>
		</g>
	</g>
	<g>
		<g>
			<g>
			</g>
		</g>
	</g>
	<g>
		<g>
			<g>
				<path class="s0" d="m1340.29 676.96q-5.94 6.53-14.96 10.86-9.02 4.33-20.54 4.33-9.37 0-17.69-3.14-8.31-3.15-14.6-8.9-6.3-5.77-9.86-13.67-3.56-7.89-3.56-17.39 0-9.25 3.38-17.09 3.39-7.85 9.56-13.6 6.16-5.77 14.48-8.96 8.31-3.2 18.06-3.21 10.79 0 19.69 3.86 8.91 3.86 14.5 10.14l-11.98 11.65q-4.4-4.52-9.88-7.06-5.46-2.57-12.1-2.57-8.19 0.01-14.44 3.4-6.23 3.37-9.66 9.37-3.44 6.01-3.44 13.96 0 7.96 3.6 14.09 3.63 6.1 9.98 9.54 6.35 3.44 14.67 3.44 6.77 0 12.52-2.55 5.77-2.56 11.58-8.14z"/>
			</g>
		</g>
	</g>
	<g>
		<g>
			<g>
				<path class="s0" d="m1435.3 690.73l-6.17-14.37h-41.1l-6.17 14.37h-19.12l37.89-83.25h16.02l37.77 83.25zm-40.85-29.45h28.27l-12.23-28.73-1.89-4.98-1.92 4.98z"/>
			</g>
		</g>
	</g>
	<g>
		<g>
			<g>
				<path class="s0" d="m1500.25 623.17v20.19h41.57v15.54h-41.57v31.83h-17.56v-83.12h63.29v15.56z"/>
			</g>
		</g>
	</g>
</svg>